<?xml version="1.0" encoding="utf-8"?>
<!-- Generator: Adobe Illustrator 25.4.1, SVG Export Plug-In . SVG Version: 6.00 Build 0)  -->
<svg version="1.1" id="Layer_1" xmlns="http://www.w3.org/2000/svg" xmlns:xlink="http://www.w3.org/1999/xlink" x="0px" y="0px"
	 viewBox="0 0 84.9 24" style="enable-background:new 0 0 84.9 24;" xml:space="preserve">
<style type="text/css">
	.st0{fill:#FFFFFF;}
</style>
<g>
	<path class="st0" d="M0,21.9c0-0.3,0.1-0.6,0.4-0.8l9.2-8.9c1.9-1.8,2.4-3.3,2.4-5.4c0-2.6-1.7-4.3-4.5-4.3C4.4,2.5,2.8,4.6,2.8,7
		c0,0.4-0.1,0.5-0.4,0.5h-2C0.2,7.6,0,7.5,0,7.1C0.1,3.2,2.8,0,7.4,0c4.4,0,7.2,3,7.2,6.8c0,3.1-1,5.1-3.1,7.1L4,21.1h11
		c0.2,0,0.3,0.1,0.3,0.3v1.9c0,0.2-0.1,0.3-0.3,0.3H0.3c-0.2,0-0.3-0.1-0.3-0.3V21.9z"/>
	<path class="st0" d="M30.6,0c4.8,0,8.2,4.1,8.2,12s-3.4,12-8.2,12s-8.2-4.1-8.2-12C22.4,4.1,25.8,0,30.6,0z M27.2,20l4.7-17.3
		c-0.4-0.1-0.8-0.1-1.3-0.1c-3.4,0-5.4,2.6-5.4,9.4C25.2,16,25.9,18.6,27.2,20z M34,4l-4.7,17.3c0.4,0.1,0.8,0.1,1.3,0.1
		c3.4,0,5.4-2.6,5.4-9.4C36,8,35.3,5.4,34,4z"/>
	<path class="st0" d="M46.1,21.9c0-0.3,0.1-0.6,0.4-0.8l9.2-8.9c1.9-1.8,2.4-3.3,2.4-5.4c0-2.6-1.7-4.3-4.5-4.3
		c-3.1,0-4.7,2.1-4.7,4.5c0,0.4-0.1,0.5-0.4,0.5h-1.9c-0.2,0-0.4-0.1-0.4-0.5c0-3.8,2.7-7,7.4-7c4.4,0,7.2,3,7.2,6.8
		c0,3.1-1,5.1-3.1,7.1l-7.5,7.2h11c0.2,0,0.3,0.1,0.3,0.3v1.9c0,0.2-0.1,0.3-0.3,0.3H46.5c-0.2,0-0.3-0.1-0.3-0.3v-1.4H46.1z"/>
</g>
<path class="st0" d="M69.3,21.9c0-0.3,0.1-0.6,0.4-0.8l9.2-8.9c1.9-1.8,2.4-3.3,2.4-5.4c0-2.6-1.7-4.3-4.5-4.3
	c-3.1,0-4.7,2.1-4.7,4.5c0,0.4-0.1,0.5-0.4,0.5h-1.9c-0.2,0-0.4-0.1-0.4-0.5c0-3.8,2.7-7,7.4-7C81.2,0,84,3,84,6.8
	c0,3.1-1,5.1-3.1,7.1l-7.5,7.2h11c0.2,0,0.3,0.1,0.3,0.3v1.9c0,0.2-0.1,0.3-0.3,0.3H69.7c-0.2,0-0.3-0.1-0.3-0.3v-1.4H69.3z"/>
</svg>
