<svg xmlns="http://www.w3.org/2000/svg" viewBox="0 0 68.1 24.3"><path d="M17.5 12H9c-.1.1-.1.2-.1.3v2c0 .2.1.3.3.3H15v3.8c-1 2.1-2.7 3.2-5.2 3.2-2.2 0-3.9-.8-5-2.4-1.2-1.6-1.7-4-1.7-7s.6-5.4 1.7-7c1-1.6 2.8-2.5 4.7-2.5 1.5 0 2.6.4 3.4 1.1.8.8 1.4 1.9 1.7 3.4 0 .2.1.3.4.3h2.2c.3 0 .4-.1.4-.3-.3-2.2-1.1-4-2.5-5.3-1.4-1.3-3.3-2-5.5-2-2.9.1-5.1 1.2-6.9 3.3S0 8.3 0 12.2c0 3.9.9 6.9 2.7 9 1.7 2.1 4.3 3.3 7 3.2 1.6 0 3.3-.4 4.6-1.3 1.3-.8 2.4-2 3.1-3.4.2-.4.3-.8.3-1.3v-6.1c0-.1 0-.2-.1-.3h-.1zm9.7 12H41c.2 0 .3-.1.3-.3v-2c0-.1 0-.2-.1-.3-.1-.1-.2-.1-.3-.1h-5.5V3h5.2c.1 0 .2 0 .2-.1.2 0 .3-.1.2-.2v-2c0-.2-.1-.3-.3-.3H27.6c-.1 0-.2 0-.3.1-.1.1-.1.2-.1.3v2c0 .1 0 .2.1.3.1-.1.2 0 .3-.1h5.2v18.3h-5.5c-.2 0-.3.1-.3.3v2c-.1.3 0 .4.2.4zM58 3v20.6c0 .1 0 .2.1.2s.2.1.3.1h2.2c.1 0 .2 0 .2-.1.1-.1.1-.2.1-.2V3h6.9c.2 0 .3-.1.3-.3v-2c0-.2-.1-.3-.3-.3H51.1c-.1 0-.2 0-.3.1-.1.1-.1.2-.1.3v2c0 .2.1.3.3.3h7z" fill="#FFF"/></svg>