<svg width="33" height="32" viewBox="0 0 33 32" xmlns="http://www.w3.org/2000/svg"><title>Fill-4</title><path d="M16.405 0C7.346 0 0 7.345 0 16.405c0 7.248 4.7 13.398 11.219 15.567.82.152 1.12-.356 1.12-.79 0-.39-.015-1.683-.022-3.054-4.564.993-5.527-1.935-5.527-1.935-.746-1.896-1.821-2.4-1.821-2.4-1.488-1.019.112-.998.112-.998 1.648.116 2.515 1.69 2.515 1.69 1.463 2.509 3.838 1.784 4.774 1.364.147-1.06.572-1.784 1.041-2.193-3.643-.415-7.474-1.822-7.474-8.108 0-1.79.641-3.254 1.69-4.403-.17-.413-.731-2.082.16-4.342 0 0 1.377-.44 4.512 1.682a15.725 15.725 0 0 1 4.106-.552c1.394.006 2.799.189 4.11.552 3.13-2.122 4.507-1.682 4.507-1.682.893 2.26.33 3.929.16 4.342 1.052 1.149 1.689 2.612 1.689 4.403 0 6.301-3.838 7.689-7.491 8.095.588.509 1.113 1.507 1.113 3.038 0 2.195-.02 3.961-.02 4.502 0 .436.296.948 1.128.787 6.514-2.172 11.209-8.32 11.209-15.565C32.81 7.345 25.465 0 16.405 0" fill="#FFF"/></svg>