<?xml version="1.0" encoding="utf-8"?>
<!-- Generator: Adobe Illustrator 21.0.2, SVG Export Plug-In . SVG Version: 6.00 Build 0)  -->
<svg version="1.1" id="Layer_1" xmlns="http://www.w3.org/2000/svg" xmlns:xlink="http://www.w3.org/1999/xlink" x="0px" y="0px"
	 viewBox="0 0 262 22" enable-background="new 0 0 262 22" xml:space="preserve">
<g>
	<path fill="#FFFFFF" d="M16.3,10.7H9.2c-0.2,0-0.3,0.1-0.3,0.3v1.7C8.9,12.9,9,13,9.2,13h4.9v3.2c-0.9,1.8-2.5,2.7-4.9,2.7
		c-1.9,0-3.5-0.7-4.6-2.1S3,13.5,3,10.8c0-2.6,0.6-4.6,1.7-6s2.6-2.1,4.3-2.1c2.6,0,4.2,1.3,4.9,3.9c0.1,0.2,0.2,0.3,0.3,0.3H16
		c0.2,0,0.3-0.1,0.3-0.3C16,4.6,15.1,3,13.8,2s-2.9-1.6-4.9-1.6c-2.4,0-4.4,0.9-6.1,2.7s-2.5,4.4-2.5,7.7s0.8,5.9,2.5,7.7
		c1.7,1.8,3.8,2.7,6.4,2.7c1.5,0,3-0.4,4.2-1.1s2.2-1.7,2.8-2.9c0.2-0.3,0.3-0.7,0.3-1.1V11C16.6,10.8,16.5,10.7,16.3,10.7z"/>
	<path fill="#FFFFFF" d="M53.5,0.7H40.9c-0.2,0-0.3,0.1-0.3,0.3v1.7c0,0.2,0.1,0.3,0.3,0.3H46v17.7c0,0.2,0.1,0.3,0.3,0.3h1.9
		c0.2,0,0.3-0.1,0.3-0.3V3h5.1c0.2,0,0.3-0.1,0.3-0.3V1C53.8,0.8,53.7,0.7,53.5,0.7z"/>
	<path fill="#FFFFFF" d="M33.8,18.7h-3.9V3h3.6c0.2,0,0.3-0.1,0.3-0.3V1c0-0.2-0.1-0.3-0.3-0.3h-9.7c-0.2,0-0.3,0.1-0.3,0.3v1.7
		c0,0.2,0.1,0.3,0.3,0.3h3.6v15.7h-3.9c-0.2,0-0.3,0.1-0.3,0.3v1.7c0,0.2,0.1,0.3,0.3,0.3h10.3c0.2,0,0.3-0.1,0.3-0.3V19
		C34.1,18.8,34,18.7,33.8,18.7z"/>
</g>
<g>
	<path fill="#FFFFFF" d="M117.3,11.2c2.5-0.9,3.8-2.6,3.8-5.1c0-3.6-2.1-5.4-6.2-5.4h-6.2c-0.2,0-0.3,0.1-0.3,0.3v19.7
		c0,0.2,0.1,0.3,0.3,0.3h1.9c0.2,0,0.3-0.1,0.3-0.3v-9.3h3.7l4.3,9.3c0.1,0.2,0.3,0.3,0.4,0.3h2.1c0.2,0,0.3-0.1,0.3-0.2
		c0,0,0-0.1,0-0.1L117.3,11.2z M110.9,9.1V3h4.3c2.3,0,3.4,1,3.4,3c0,2-1.1,3-3.4,3H110.9z"/>
	<path fill="#FFFFFF" d="M80.9,0.7h-2.9c-0.2,0-0.4,0.1-0.5,0.3l-4,10.9L69.5,1c-0.1-0.2-0.2-0.3-0.5-0.3h-2.9
		c-0.2,0-0.3,0.1-0.3,0.3v19.7c0,0.2,0.1,0.3,0.3,0.3H68c0.2,0,0.3-0.1,0.3-0.3V4.5l4.1,10.8c0.1,0.2,0.2,0.3,0.4,0.3h1.4
		c0.2,0,0.3-0.1,0.4-0.3l4.1-10.8v16.2c0,0.2,0.1,0.3,0.3,0.3h1.9c0.2,0,0.3-0.1,0.3-0.3V1C81.2,0.8,81.1,0.7,80.9,0.7z"/>
	<path fill="#FFFFFF" d="M100.1,18.7h-8.4v-7.2H99c0.2,0,0.3-0.1,0.3-0.3V9.5c0-0.2-0.1-0.3-0.3-0.3h-7.3V3h8.2
		c0.2,0,0.3-0.1,0.3-0.3V1c0-0.2-0.1-0.3-0.3-0.3H89.6c-0.2,0-0.3,0.1-0.3,0.3v19.7c0,0.2,0.1,0.3,0.3,0.3h10.6
		c0.2,0,0.3-0.1,0.3-0.3V19C100.4,18.8,100.3,18.7,100.1,18.7z"/>
	<path fill="#FFFFFF" d="M163,18.7h-8.4v-7.2h7.3c0.2,0,0.3-0.1,0.3-0.3V9.5c0-0.2-0.1-0.3-0.3-0.3h-7.3V3h8.2
		c0.2,0,0.3-0.1,0.3-0.3V1c0-0.2-0.1-0.3-0.3-0.3h-10.4c-0.2,0-0.3,0.1-0.3,0.3v19.7c0,0.2,0.1,0.3,0.3,0.3H163
		c0.2,0,0.3-0.1,0.3-0.3V19C163.3,18.8,163.2,18.7,163,18.7z"/>
	<path fill="#FFFFFF" d="M144.2,10.7h-7.1c-0.2,0-0.3,0.1-0.3,0.3v1.7c0,0.2,0.1,0.3,0.3,0.3h4.9v3.2c-0.9,1.8-2.5,2.7-4.9,2.7
		c-1.9,0-3.5-0.7-4.6-2.1c-1.1-1.4-1.7-3.4-1.7-6c0-2.6,0.6-4.6,1.7-6s2.6-2.1,4.3-2.1c2.6,0,4.2,1.3,4.9,3.9
		c0.1,0.2,0.2,0.3,0.3,0.3h1.9c0.2,0,0.3-0.1,0.3-0.3c-0.4-2-1.2-3.6-2.6-4.6s-2.9-1.6-4.9-1.6c-2.4,0-4.4,0.9-6.1,2.7
		c-1.7,1.8-2.5,4.4-2.5,7.7s0.8,5.9,2.5,7.7c1.7,1.8,3.8,2.7,6.4,2.7c1.5,0,3-0.4,4.2-1.1c1.3-0.7,2.2-1.7,2.8-2.9
		c0.2-0.3,0.3-0.7,0.3-1.1V11C144.5,10.8,144.4,10.7,144.2,10.7z"/>
	<g>
		<path fill="#FFFFFF" d="M214.7,0.4c-2.2,0-4,0.9-5.4,2.8s-2,4.4-2,7.7s0.7,5.8,2,7.7c1.3,1.8,3.1,2.8,5.4,2.8c2.2,0,4-0.9,5.3-2.8
			c1.3-1.8,2-4.4,2-7.7s-0.7-5.8-2-7.7C218.7,1.3,216.9,0.4,214.7,0.4z M209.8,10.8c0-5.5,1.6-8.2,4.9-8.2c0.4,0,0.8,0,1.1,0.1
			l-4.1,15.1C210.4,16.6,209.8,14.2,209.8,10.8z M214.7,19c-0.4,0-0.8,0-1.1-0.1l4.1-15.1c1.3,1.3,1.9,3.6,1.9,7
			C219.6,16.3,218,19,214.7,19z"/>
		<path fill="#FFFFFF" d="M261.1,5.4c-0.4-1.3-0.9-2.3-1.5-3s-1.4-1.2-2.1-1.5c-0.8-0.3-1.7-0.5-2.6-0.5c-1.8,0-3.4,0.6-4.6,1.8
			s-1.9,2.8-1.9,4.9c0,2,0.6,3.7,1.7,4.9s2.7,1.8,4.6,1.8c0.9,0,1.7-0.2,2.5-0.5c0.8-0.4,1.5-0.9,2.1-1.5c-0.1,2.4-0.5,4.2-1.3,5.5
			c-0.8,1.3-1.8,1.9-2.9,1.9c-1.9,0-3.1-1-3.5-2.9c-0.1-0.2-0.2-0.3-0.3-0.3h-1.7c-0.2,0-0.3,0.1-0.3,0.3c0.2,1.5,0.9,2.7,1.9,3.7
			c1,0.9,2.3,1.4,3.9,1.4c2,0,3.7-1,4.9-2.9s1.9-4.7,1.9-8.5C261.7,8.2,261.5,6.6,261.1,5.4z M257.8,10.3c-0.7,0.8-1.7,1.2-3,1.2
			s-2.3-0.4-3-1.2c-0.7-0.8-1.1-1.9-1.1-3.2s0.4-2.4,1.1-3.2c0.7-0.8,1.7-1.2,3-1.2s2.3,0.4,3,1.2s1.1,1.9,1.1,3.2
			S258.5,9.5,257.8,10.3z"/>
		<path fill="#FFFFFF" d="M200,18.7h-9.3l6.5-6.2c0.9-0.9,1.6-1.8,2-2.8s0.6-2.1,0.6-3.3c0-1.6-0.6-3-1.7-4.2
			c-1.2-1.2-2.7-1.8-4.6-1.8c-1.9,0-3.4,0.6-4.5,1.8s-1.7,2.6-1.7,4.4c0,0.3,0.1,0.4,0.4,0.4h1.6c0.3,0,0.4-0.1,0.4-0.4
			c0-1.1,0.3-2.1,1-2.8s1.6-1.1,2.9-1.1c1.2,0,2.2,0.3,2.9,1c0.7,0.7,1,1.6,1,2.8c0,1-0.1,1.9-0.4,2.5s-0.7,1.3-1.5,2l-8,7.8
			c-0.2,0.2-0.3,0.4-0.3,0.7v1.2c0,0.2,0.1,0.3,0.3,0.3H200c0.2,0,0.3-0.1,0.3-0.3V19C200.3,18.8,200.2,18.7,200,18.7z"/>
		<path fill="#FFFFFF" d="M241.2,18.7h-4.8V1c0-0.2-0.1-0.3-0.3-0.3h-1c-0.1,0-0.3,0.1-0.4,0.2l-5.1,2.8c-0.2,0.1-0.3,0.3-0.3,0.4v2
			c0,0.2,0.1,0.3,0.2,0.3c0.1,0,0.2,0,0.3-0.1l4.3-2.4v14.8h-4.8c-0.2,0-0.3,0.1-0.3,0.3v1.7c0,0.2,0.1,0.3,0.3,0.3h12
			c0.2,0,0.3-0.1,0.3-0.3V19C241.5,18.8,241.4,18.7,241.2,18.7z"/>
	</g>
</g>
</svg>
