<svg xmlns="http://www.w3.org/2000/svg" viewBox="0 0 117.4 24.3"><path d="M16.1.3h-3.3c-.3 0-.5.1-.5.3l-4 11.2L4.3.6c0-.2-.2-.3-.5-.3H.3C.2.3.1.3.1.4 0 .5 0 .6 0 .7v23c0 .1 0 .2.1.3s.1 0 .2 0h2.2c.2 0 .3-.1.3-.3V4.5l4.1 10.6c0 .1.2.2.4.2h1.8c.2 0 .4-.1.4-.2l4.1-10.6v19.2c0 .1 0 .2.1.2.1.1.2.1.3.1h2.2c.1 0 .2 0 .2-.1.1-.1.1-.2.1-.3V.6c-.1-.2-.2-.3-.4-.3zm24.7 0H26.7c-.1 0-.2 0-.3.1-.1.1-.1.2-.1.3v23c0 .2.1.3.3.3H41c.2 0 .3-.1.3-.3v-2c0-.1 0-.2-.1-.3-.1-.1-.2-.1-.3-.1H29.1v-8.4h10.6c.2 0 .3-.1.3-.3v-2c0-.2-.1-.3-.3-.3H29.1V3h11.7c.1 0 .2 0 .2-.1.1-.1.1-.2.1-.3v-2c0-.2-.1-.3-.3-.3zm21.6 12.2c2.9-1 4.4-3 4.4-6 0-4.2-2.4-6.3-7.1-6.3h-8.1c-.1 0-.2 0-.2.1-.1.1-.1.2-.1.3v23c0 .1 0 .2.1.3.1.1.2.1.2.1h2.2c.2 0 .3-.1.3-.3V12.8h5.2l5.2 10.8c.1.2.3.3.5.3h2.5c.2 0 .3-.1.3-.2v-.1l-5.4-11.1zm-8.3-2.4V3H60c2.7 0 4 1.2 4 3.6 0 2.4-1.3 3.5-4 3.5h-5.9zM92.9 12h-8.2c-.1 0-.2 0-.2.1-.1.1-.1.2-.1.3v2c0 .2.1.3.3.3h5.7v3.8c-1 2.1-2.7 3.2-5.2 3.2-2.2 0-3.9-.8-5-2.4-1.2-1.6-1.7-4-1.7-7s.6-5.4 1.7-7c1-1.6 2.8-2.5 4.7-2.5 1.5 0 2.6.4 3.4 1.1.8.8 1.4 1.9 1.7 3.4 0 .2.1.3.4.3h2.1c.3 0 .4-.1.4-.3-.3-2.2-1.1-4-2.5-5.3s-3.3-2-5.5-2c-2.7 0-4.9 1.1-6.7 3.2-1.8 2.1-2.7 5.1-2.7 9 0 3.9.9 6.8 2.7 9 1.7 2.1 4.3 3.3 7 3.2 3.3.1 6.3-1.7 7.7-4.7.2-.4.3-.8.3-1.3v-6.1c0-.1 0-.2-.1-.3h-.2zm24.1 9.3h-11.9v-8.4h10.6c.2 0 .3-.1.3-.3v-2c0-.2-.1-.3-.3-.3h-10.6V3h11.7c.1 0 .2 0 .2-.1s.1-.2.1-.3v-2c0-.2-.1-.3-.3-.3h-14.2c-.1 0-.2 0-.3.1-.1.1-.1.2-.1.3v23c0 .2.1.3.3.3H117c.2 0 .3-.1.3-.3v-2c0-.1 0-.2-.1-.3 0-.1-.1-.1-.2-.1z" fill="#FFF"/></svg>