<svg width="60" height="17" viewBox="0 0 60 17" xmlns="http://www.w3.org/2000/svg"><title>Page 1</title><path d="M11.4 7.037H6.428a.234.234 0 0 0-.233.235v2.454c0 .13.104.235.233.235h1.94v3.048s-.436.15-1.64.15c-1.421 0-3.407-.524-3.407-4.929s2.068-4.985 4.008-4.985c1.68 0 2.404.298 2.865.442.144.045.278-.1.278-.23l.555-2.37a.22.22 0 0 0-.089-.184C10.75.768 9.61.124 6.727.124 3.407.124 0 1.55 0 8.402c0 6.853 3.9 7.874 7.186 7.874 2.721 0 4.372-1.173 4.372-1.173.068-.038.075-.134.075-.178V7.272a.234.234 0 0 0-.232-.235M37.035.945a.233.233 0 0 0-.23-.236h-2.802a.234.234 0 0 0-.232.236l.001 5.462h-4.365V.945a.233.233 0 0 0-.231-.236h-2.8a.234.234 0 0 0-.232.236v14.788c0 .13.104.236.231.236h2.8a.234.234 0 0 0 .232-.236V9.408h4.365l-.007 6.325c0 .13.104.236.232.236h2.807c.128 0 .23-.106.231-.236V.945zM16.686 2.886c0-1.018-.809-1.84-1.806-1.84s-1.806.822-1.806 1.84c0 1.016.81 1.84 1.806 1.84.997 0 1.806-.824 1.806-1.84m-.201 9.727V5.787a.234.234 0 0 0-.231-.235h-2.792c-.128 0-.243.133-.243.263v9.78c0 .286.178.372.407.372h2.516c.276 0 .343-.137.343-.377v-2.977zm31.194-7.039h-2.78a.234.234 0 0 0-.23.237v7.25s-.706.522-1.709.522c-1.002 0-1.268-.46-1.268-1.45V5.812a.234.234 0 0 0-.23-.237H38.64a.235.235 0 0 0-.231.237v6.801c0 2.941 1.624 3.66 3.859 3.66 1.833 0 3.311-1.021 3.311-1.021s.07.538.102.602a.245.245 0 0 0 .205.128l1.794-.008a.234.234 0 0 0 .232-.236l-.001-9.926a.234.234 0 0 0-.232-.237m6.5 7.999c-.964-.03-1.618-.471-1.618-.471V8.42s.645-.4 1.437-.47c1-.091 1.965.214 1.965 2.623 0 2.54-.436 3.042-1.784 3m1.096-8.331c-1.578 0-2.652.71-2.652.71V.946a.233.233 0 0 0-.231-.236h-2.809a.234.234 0 0 0-.231.236v14.788c0 .13.104.236.232.236h1.948c.088 0 .154-.046.204-.125.048-.08.118-.682.118-.682s1.148 1.098 3.322 1.098c2.553 0 4.017-1.306 4.017-5.864s-2.338-5.154-3.918-5.154m-30.74.307h-2.101l-.003-2.8c0-.106-.054-.159-.176-.159h-2.863c-.111 0-.17.05-.17.158v2.893s-1.435.35-1.532.378a.235.235 0 0 0-.168.226v1.818c0 .13.103.236.231.236h1.468v4.375c0 3.25 2.26 3.569 3.784 3.569.696 0 1.53-.226 1.667-.277.083-.03.132-.118.132-.212l.002-2a.239.239 0 0 0-.232-.237c-.123 0-.436.05-.758.05-1.032 0-1.382-.483-1.382-1.11V8.3h2.1a.234.234 0 0 0 .233-.236V5.786a.233.233 0 0 0-.232-.235" fill="#FFF" fill-rule="evenodd"/></svg>